<svg width="768" height="60" viewBox="0 0 768 60" fill="none" xmlns="http://www.w3.org/2000/svg">
<rect width="600" height="60" rx="30" fill="#39565D" fill-opacity="0.15"/>
<rect x="10" y="10" width="40" height="40" rx="20" fill="#39565D" fill-opacity="0.1"/>
<path d="M30 23V37M23 30H37" stroke="#E6E6E6" stroke-width="2" stroke-linecap="round" stroke-linejoin="round"/>
<path opacity="0.5" d="M91.64 24.49L87.932 37H85.61L82.982 27.532L80.192 37L77.888 37.018L74.342 24.49H76.52L79.112 34.678L81.92 24.49H84.224L86.834 34.624L89.444 24.49H91.64ZM98.4624 26.92C99.2184 26.92 99.8904 27.082 100.478 27.406C101.078 27.73 101.546 28.21 101.882 28.846C102.23 29.482 102.404 30.25 102.404 31.15V37H100.37V31.456C100.37 30.568 100.148 29.89 99.7044 29.422C99.2604 28.942 98.6544 28.702 97.8864 28.702C97.1184 28.702 96.5064 28.942 96.0504 29.422C95.6064 29.89 95.3844 30.568 95.3844 31.456V37H93.3324V23.68H95.3844V28.234C95.7324 27.814 96.1704 27.49 96.6984 27.262C97.2384 27.034 97.8264 26.92 98.4624 26.92ZM104.338 31.996C104.338 31 104.542 30.118 104.95 29.35C105.37 28.582 105.934 27.988 106.642 27.568C107.362 27.136 108.154 26.92 109.018 26.92C109.798 26.92 110.476 27.076 111.052 27.388C111.64 27.688 112.108 28.066 112.456 28.522V27.082H114.526V37H112.456V35.524C112.108 35.992 111.634 36.382 111.034 36.694C110.434 37.006 109.75 37.162 108.982 37.162C108.13 37.162 107.35 36.946 106.642 36.514C105.934 36.07 105.37 35.458 104.95 34.678C104.542 33.886 104.338 32.992 104.338 31.996ZM112.456 32.032C112.456 31.348 112.312 30.754 112.024 30.25C111.748 29.746 111.382 29.362 110.926 29.098C110.47 28.834 109.978 28.702 109.45 28.702C108.922 28.702 108.43 28.834 107.974 29.098C107.518 29.35 107.146 29.728 106.858 30.232C106.582 30.724 106.444 31.312 106.444 31.996C106.444 32.68 106.582 33.28 106.858 33.796C107.146 34.312 107.518 34.708 107.974 34.984C108.442 35.248 108.934 35.38 109.45 35.38C109.978 35.38 110.47 35.248 110.926 34.984C111.382 34.72 111.748 34.336 112.024 33.832C112.312 33.316 112.456 32.716 112.456 32.032ZM119.615 28.756V34.246C119.615 34.618 119.699 34.888 119.867 35.056C120.047 35.212 120.347 35.29 120.767 35.29H122.027V37H120.407C119.483 37 118.775 36.784 118.283 36.352C117.791 35.92 117.545 35.218 117.545 34.246V28.756H116.375V27.082H117.545V24.616H119.615V27.082H122.027V28.756H119.615ZM124.242 24.49H126.474L124.584 28.774H123.144L124.242 24.49ZM131.878 37.162C131.098 37.162 130.396 37.024 129.772 36.748C129.16 36.46 128.674 36.076 128.314 35.596C127.954 35.104 127.762 34.558 127.738 33.958H129.862C129.898 34.378 130.096 34.732 130.456 35.02C130.828 35.296 131.29 35.434 131.842 35.434C132.418 35.434 132.862 35.326 133.174 35.11C133.498 34.882 133.66 34.594 133.66 34.246C133.66 33.874 133.48 33.598 133.12 33.418C132.772 33.238 132.214 33.04 131.446 32.824C130.702 32.62 130.096 32.422 129.628 32.23C129.16 32.038 128.752 31.744 128.404 31.348C128.068 30.952 127.9 30.43 127.9 29.782C127.9 29.254 128.056 28.774 128.368 28.342C128.68 27.898 129.124 27.55 129.7 27.298C130.288 27.046 130.96 26.92 131.716 26.92C132.844 26.92 133.75 27.208 134.434 27.784C135.13 28.348 135.502 29.122 135.55 30.106H133.498C133.462 29.662 133.282 29.308 132.958 29.044C132.634 28.78 132.196 28.648 131.644 28.648C131.104 28.648 130.69 28.75 130.402 28.954C130.114 29.158 129.97 29.428 129.97 29.764C129.97 30.028 130.066 30.25 130.258 30.43C130.45 30.61 130.684 30.754 130.96 30.862C131.236 30.958 131.644 31.084 132.184 31.24C132.904 31.432 133.492 31.63 133.948 31.834C134.416 32.026 134.818 32.314 135.154 32.698C135.49 33.082 135.664 33.592 135.676 34.228C135.676 34.792 135.52 35.296 135.208 35.74C134.896 36.184 134.452 36.532 133.876 36.784C133.312 37.036 132.646 37.162 131.878 37.162ZM146.871 37.162C145.935 37.162 145.089 36.952 144.333 36.532C143.577 36.1 142.983 35.5 142.551 34.732C142.119 33.952 141.903 33.052 141.903 32.032C141.903 31.024 142.125 30.13 142.569 29.35C143.013 28.57 143.619 27.97 144.387 27.55C145.155 27.13 146.013 26.92 146.961 26.92C147.909 26.92 148.767 27.13 149.535 27.55C150.303 27.97 150.909 28.57 151.353 29.35C151.797 30.13 152.019 31.024 152.019 32.032C152.019 33.04 151.791 33.934 151.335 34.714C150.879 35.494 150.255 36.1 149.463 36.532C148.683 36.952 147.819 37.162 146.871 37.162ZM146.871 35.38C147.399 35.38 147.891 35.254 148.347 35.002C148.815 34.75 149.193 34.372 149.481 33.868C149.769 33.364 149.913 32.752 149.913 32.032C149.913 31.312 149.775 30.706 149.499 30.214C149.223 29.71 148.857 29.332 148.401 29.08C147.945 28.828 147.453 28.702 146.925 28.702C146.397 28.702 145.905 28.828 145.449 29.08C145.005 29.332 144.651 29.71 144.387 30.214C144.123 30.706 143.991 31.312 143.991 32.032C143.991 33.1 144.261 33.928 144.801 34.516C145.353 35.092 146.043 35.38 146.871 35.38ZM159.051 26.92C159.831 26.92 160.527 27.082 161.139 27.406C161.763 27.73 162.249 28.21 162.597 28.846C162.945 29.482 163.119 30.25 163.119 31.15V37H161.085V31.456C161.085 30.568 160.863 29.89 160.419 29.422C159.975 28.942 159.369 28.702 158.601 28.702C157.833 28.702 157.221 28.942 156.765 29.422C156.321 29.89 156.099 30.568 156.099 31.456V37H154.047V27.082H156.099V28.216C156.435 27.808 156.861 27.49 157.377 27.262C157.905 27.034 158.463 26.92 159.051 26.92ZM179.341 27.082L173.257 41.662H171.133L173.149 36.838L169.243 27.082H171.529L174.319 34.642L177.217 27.082H179.341ZM185.191 37.162C184.255 37.162 183.409 36.952 182.653 36.532C181.897 36.1 181.303 35.5 180.871 34.732C180.439 33.952 180.223 33.052 180.223 32.032C180.223 31.024 180.445 30.13 180.889 29.35C181.333 28.57 181.939 27.97 182.707 27.55C183.475 27.13 184.333 26.92 185.281 26.92C186.229 26.92 187.087 27.13 187.855 27.55C188.623 27.97 189.229 28.57 189.673 29.35C190.117 30.13 190.339 31.024 190.339 32.032C190.339 33.04 190.111 33.934 189.655 34.714C189.199 35.494 188.575 36.1 187.783 36.532C187.003 36.952 186.139 37.162 185.191 37.162ZM185.191 35.38C185.719 35.38 186.211 35.254 186.667 35.002C187.135 34.75 187.513 34.372 187.801 33.868C188.089 33.364 188.233 32.752 188.233 32.032C188.233 31.312 188.095 30.706 187.819 30.214C187.543 29.71 187.177 29.332 186.721 29.08C186.265 28.828 185.773 28.702 185.245 28.702C184.717 28.702 184.225 28.828 183.769 29.08C183.325 29.332 182.971 29.71 182.707 30.214C182.443 30.706 182.311 31.312 182.311 32.032C182.311 33.1 182.581 33.928 183.121 34.516C183.673 35.092 184.363 35.38 185.191 35.38ZM201.35 27.082V37H199.298V35.83C198.974 36.238 198.548 36.562 198.02 36.802C197.504 37.03 196.952 37.144 196.364 37.144C195.584 37.144 194.882 36.982 194.258 36.658C193.646 36.334 193.16 35.854 192.8 35.218C192.452 34.582 192.278 33.814 192.278 32.914V27.082H194.312V32.608C194.312 33.496 194.534 34.18 194.978 34.66C195.422 35.128 196.028 35.362 196.796 35.362C197.564 35.362 198.17 35.128 198.614 34.66C199.07 34.18 199.298 33.496 199.298 32.608V27.082H201.35ZM206.109 28.522C206.409 28.018 206.805 27.628 207.297 27.352C207.801 27.064 208.395 26.92 209.079 26.92V29.044H208.557C207.753 29.044 207.141 29.248 206.721 29.656C206.313 30.064 206.109 30.772 206.109 31.78V37H204.057V27.082H206.109V28.522ZM227.647 26.92C228.427 26.92 229.123 27.082 229.735 27.406C230.359 27.73 230.845 28.21 231.193 28.846C231.553 29.482 231.733 30.25 231.733 31.15V37H229.699V31.456C229.699 30.568 229.477 29.89 229.033 29.422C228.589 28.942 227.983 28.702 227.215 28.702C226.447 28.702 225.835 28.942 225.379 29.422C224.935 29.89 224.713 30.568 224.713 31.456V37H222.679V31.456C222.679 30.568 222.457 29.89 222.013 29.422C221.569 28.942 220.963 28.702 220.195 28.702C219.427 28.702 218.815 28.942 218.359 29.422C217.915 29.89 217.693 30.568 217.693 31.456V37H215.641V27.082H217.693V28.216C218.029 27.808 218.455 27.49 218.971 27.262C219.487 27.034 220.039 26.92 220.627 26.92C221.419 26.92 222.127 27.088 222.751 27.424C223.375 27.76 223.855 28.246 224.191 28.882C224.491 28.282 224.959 27.808 225.595 27.46C226.231 27.1 226.915 26.92 227.647 26.92ZM235.388 25.768C235.016 25.768 234.704 25.642 234.452 25.39C234.2 25.138 234.074 24.826 234.074 24.454C234.074 24.082 234.2 23.77 234.452 23.518C234.704 23.266 235.016 23.14 235.388 23.14C235.748 23.14 236.054 23.266 236.306 23.518C236.558 23.77 236.684 24.082 236.684 24.454C236.684 24.826 236.558 25.138 236.306 25.39C236.054 25.642 235.748 25.768 235.388 25.768ZM236.396 27.082V37H234.344V27.082H236.396ZM244.094 26.92C244.874 26.92 245.57 27.082 246.182 27.406C246.806 27.73 247.292 28.21 247.64 28.846C247.988 29.482 248.162 30.25 248.162 31.15V37H246.128V31.456C246.128 30.568 245.906 29.89 245.462 29.422C245.018 28.942 244.412 28.702 243.644 28.702C242.876 28.702 242.264 28.942 241.808 29.422C241.364 29.89 241.142 30.568 241.142 31.456V37H239.09V27.082H241.142V28.216C241.478 27.808 241.904 27.49 242.42 27.262C242.948 27.034 243.506 26.92 244.094 26.92ZM250.096 31.996C250.096 31 250.3 30.118 250.708 29.35C251.128 28.582 251.692 27.988 252.4 27.568C253.12 27.136 253.918 26.92 254.794 26.92C255.442 26.92 256.078 27.064 256.702 27.352C257.338 27.628 257.842 28 258.214 28.468V23.68H260.284V37H258.214V35.506C257.878 35.986 257.41 36.382 256.81 36.694C256.222 37.006 255.544 37.162 254.776 37.162C253.912 37.162 253.12 36.946 252.4 36.514C251.692 36.07 251.128 35.458 250.708 34.678C250.3 33.886 250.096 32.992 250.096 31.996ZM258.214 32.032C258.214 31.348 258.07 30.754 257.782 30.25C257.506 29.746 257.14 29.362 256.684 29.098C256.228 28.834 255.736 28.702 255.208 28.702C254.68 28.702 254.188 28.834 253.732 29.098C253.276 29.35 252.904 29.728 252.616 30.232C252.34 30.724 252.202 31.312 252.202 31.996C252.202 32.68 252.34 33.28 252.616 33.796C252.904 34.312 253.276 34.708 253.732 34.984C254.2 35.248 254.692 35.38 255.208 35.38C255.736 35.38 256.228 35.248 256.684 34.984C257.14 34.72 257.506 34.336 257.782 33.832C258.07 33.316 258.214 32.716 258.214 32.032ZM266.345 24.31C267.569 24.31 268.547 24.646 269.279 25.318C270.023 25.99 270.395 26.908 270.395 28.072C270.395 29.284 270.011 30.196 269.243 30.808C268.475 31.42 267.455 31.726 266.183 31.726L266.111 33.148H264.329L264.239 30.322H264.833C265.997 30.322 266.885 30.166 267.497 29.854C268.121 29.542 268.433 28.948 268.433 28.072C268.433 27.436 268.247 26.938 267.875 26.578C267.515 26.218 267.011 26.038 266.363 26.038C265.715 26.038 265.205 26.212 264.833 26.56C264.461 26.908 264.275 27.394 264.275 28.018H262.349C262.349 27.298 262.511 26.656 262.835 26.092C263.159 25.528 263.621 25.09 264.221 24.778C264.833 24.466 265.541 24.31 266.345 24.31ZM265.193 37.126C264.821 37.126 264.509 37 264.257 36.748C264.005 36.496 263.879 36.184 263.879 35.812C263.879 35.44 264.005 35.128 264.257 34.876C264.509 34.624 264.821 34.498 265.193 34.498C265.553 34.498 265.859 34.624 266.111 34.876C266.363 35.128 266.489 35.44 266.489 35.812C266.489 36.184 266.363 36.496 266.111 36.748C265.859 37 265.553 37.126 265.193 37.126Z" fill="#E6E6E6"/>
<g clip-path="url(#clip0_2455_152)">
<path d="M432 29C432 20.1634 439.163 13 448 13H571C579.837 13 587 20.1634 587 29V31C587 39.8366 579.837 47 571 47H448C439.163 47 432 39.8366 432 31V29Z" fill="url(#paint0_radial_2455_152)" fill-opacity="0.5"/>
<path fill-rule="evenodd" clip-rule="evenodd" d="M491.048 21.2637C491.328 20.7126 491.876 21.0892 491.831 21.8033L491.517 26.8187H494.056C494.14 26.8188 494.223 26.8582 494.294 26.9324C494.365 27.0065 494.422 27.1123 494.458 27.2375C494.494 27.3626 494.507 27.5018 494.496 27.6388C494.486 27.7758 494.451 27.905 494.397 28.0112L489.952 36.7363C489.672 37.2874 489.124 36.9108 489.169 36.1968L489.483 31.1813H486.944C486.86 31.1812 486.777 31.1418 486.706 31.0677C486.635 30.9935 486.578 30.8877 486.542 30.7625C486.506 30.6374 486.493 30.4982 486.504 30.3612C486.514 30.2242 486.549 30.095 486.603 29.9888L491.048 21.2637Z" fill="#E6E6E6"/>
<path d="M509.586 24.27V25.572H505.456V28.442H508.676V29.744H505.456V34H503.86V24.27H509.586ZM510.533 30.108C510.533 29.3333 510.691 28.6473 511.009 28.05C511.335 27.4527 511.774 26.9907 512.325 26.664C512.885 26.328 513.501 26.16 514.173 26.16C514.779 26.16 515.307 26.2813 515.755 26.524C516.212 26.7573 516.576 27.0513 516.847 27.406V26.286H518.457V34H516.847V32.852C516.576 33.216 516.207 33.5193 515.741 33.762C515.274 34.0047 514.742 34.126 514.145 34.126C513.482 34.126 512.875 33.958 512.325 33.622C511.774 33.2767 511.335 32.8007 511.009 32.194C510.691 31.578 510.533 30.8827 510.533 30.108ZM516.847 30.136C516.847 29.604 516.735 29.142 516.511 28.75C516.296 28.358 516.011 28.0593 515.657 27.854C515.302 27.6487 514.919 27.546 514.509 27.546C514.098 27.546 513.715 27.6487 513.361 27.854C513.006 28.05 512.717 28.344 512.493 28.736C512.278 29.1187 512.171 29.576 512.171 30.108C512.171 30.64 512.278 31.1067 512.493 31.508C512.717 31.9093 513.006 32.2173 513.361 32.432C513.725 32.6373 514.107 32.74 514.509 32.74C514.919 32.74 515.302 32.6373 515.657 32.432C516.011 32.2267 516.296 31.928 516.511 31.536C516.735 31.1347 516.847 30.668 516.847 30.136ZM523.353 34.126C522.746 34.126 522.2 34.0187 521.715 33.804C521.239 33.58 520.861 33.2813 520.581 32.908C520.301 32.5253 520.152 32.1007 520.133 31.634H521.785C521.813 31.9607 521.967 32.236 522.247 32.46C522.536 32.6747 522.896 32.782 523.325 32.782C523.773 32.782 524.118 32.698 524.361 32.53C524.613 32.3527 524.739 32.1287 524.739 31.858C524.739 31.5687 524.599 31.354 524.319 31.214C524.048 31.074 523.614 30.92 523.017 30.752C522.438 30.5933 521.967 30.4393 521.603 30.29C521.239 30.1407 520.922 29.912 520.651 29.604C520.39 29.296 520.259 28.89 520.259 28.386C520.259 27.9753 520.38 27.602 520.623 27.266C520.866 26.9207 521.211 26.65 521.659 26.454C522.116 26.258 522.639 26.16 523.227 26.16C524.104 26.16 524.809 26.384 525.341 26.832C525.882 27.2707 526.172 27.8727 526.209 28.638H524.613C524.585 28.2927 524.445 28.0173 524.193 27.812C523.941 27.6067 523.6 27.504 523.171 27.504C522.751 27.504 522.429 27.5833 522.205 27.742C521.981 27.9007 521.869 28.1107 521.869 28.372C521.869 28.5773 521.944 28.75 522.093 28.89C522.242 29.03 522.424 29.142 522.639 29.226C522.854 29.3007 523.171 29.3987 523.591 29.52C524.151 29.6693 524.608 29.8233 524.963 29.982C525.327 30.1313 525.64 30.3553 525.901 30.654C526.162 30.9527 526.298 31.3493 526.307 31.844C526.307 32.2827 526.186 32.6747 525.943 33.02C525.7 33.3653 525.355 33.636 524.907 33.832C524.468 34.028 523.95 34.126 523.353 34.126ZM529.893 27.588V31.858C529.893 32.1473 529.959 32.3573 530.089 32.488C530.229 32.6093 530.463 32.67 530.789 32.67H531.769V34H530.509C529.791 34 529.24 33.832 528.857 33.496C528.475 33.16 528.283 32.614 528.283 31.858V27.588H527.373V26.286H528.283V24.368H529.893V26.286H531.769V27.588H529.893Z" fill="#E6E6E6"/>
</g>
<defs>
<radialGradient id="paint0_radial_2455_152" cx="0" cy="0" r="1" gradientTransform="matrix(59.6154 6.61111 9.41017 45.9653 473.234 2.61111)" gradientUnits="userSpaceOnUse">
<stop stop-color="#669099"/>
<stop offset="1" stop-color="#223033"/>
</radialGradient>
<clipPath id="clip0_2455_152">
<path d="M432 29C432 20.1634 439.163 13 448 13H571C579.837 13 587 20.1634 587 29V31C587 39.8366 579.837 47 571 47H448C439.163 47 432 39.8366 432 31V29Z" fill="white"/>
</clipPath>
</defs>
</svg>
