<svg width="136" height="29" viewBox="0 0 136 29" fill="none" xmlns="http://www.w3.org/2000/svg">
<path opacity="0.6" d="M4.2 19.4597H11.228V21.0557H2.24V1.48366H4.2V19.4597ZM15.0052 2.88366C14.6132 2.88366 14.2772 2.74366 13.9972 2.46366C13.7172 2.18366 13.5772 1.83833 13.5772 1.42766C13.5772 1.017 13.7172 0.680996 13.9972 0.419663C14.2772 0.139663 14.6132 -0.000336885 15.0052 -0.000336885C15.3972 -0.000336885 15.7332 0.139663 16.0132 0.419663C16.2932 0.680996 16.4332 1.017 16.4332 1.42766C16.4332 1.83833 16.2932 2.18366 16.0132 2.46366C15.7332 2.74366 15.3972 2.88366 15.0052 2.88366ZM15.9852 5.76766V21.0557H14.0252V5.76766H15.9852ZM25.6876 21.2797C23.9329 21.2797 22.4956 20.8783 21.3756 20.0757C20.2743 19.2543 19.6583 18.1437 19.5276 16.7437H21.5436C21.6369 17.6023 22.0383 18.3023 22.7476 18.8437C23.4756 19.3663 24.4463 19.6277 25.6596 19.6277C26.7236 19.6277 27.5543 19.3757 28.1516 18.8717C28.7676 18.3677 29.0756 17.7423 29.0756 16.9957C29.0756 16.473 28.9076 16.0437 28.5716 15.7077C28.2356 15.3717 27.8063 15.1103 27.2836 14.9237C26.7796 14.7183 26.0889 14.5037 25.2116 14.2797C24.0729 13.981 23.1489 13.6823 22.4396 13.3837C21.7303 13.085 21.1236 12.6463 20.6196 12.0677C20.1343 11.4703 19.8916 10.677 19.8916 9.68766C19.8916 8.941 20.1156 8.25033 20.5636 7.61566C21.0116 6.981 21.6463 6.477 22.4676 6.10366C23.2889 5.73033 24.2223 5.54366 25.2676 5.54366C26.9103 5.54366 28.2356 5.96366 29.2436 6.80366C30.2516 7.625 30.7929 8.76366 30.8676 10.2197H28.9076C28.8516 9.32366 28.4969 8.605 27.8436 8.06366C27.2089 7.50366 26.3316 7.22366 25.2116 7.22366C24.2223 7.22366 23.4196 7.457 22.8036 7.92366C22.1876 8.39033 21.8796 8.969 21.8796 9.65966C21.8796 10.257 22.0569 10.7517 22.4116 11.1437C22.7849 11.517 23.2423 11.8157 23.7836 12.0397C24.3249 12.245 25.0529 12.4783 25.9676 12.7397C27.0689 13.0383 27.9463 13.3277 28.5996 13.6077C29.2529 13.8877 29.8129 14.2983 30.2796 14.8397C30.7463 15.381 30.9889 16.0997 31.0076 16.9957C31.0076 17.817 30.7836 18.5543 30.3356 19.2077C29.8876 19.8423 29.2623 20.3463 28.4596 20.7197C27.6569 21.093 26.7329 21.2797 25.6876 21.2797ZM37.245 7.41966V16.9117C37.245 17.845 37.4224 18.489 37.777 18.8437C38.1317 19.1983 38.757 19.3757 39.653 19.3757H41.445V21.0557H39.345C37.9637 21.0557 36.937 20.7383 36.265 20.1037C35.593 19.4503 35.257 18.3863 35.257 16.9117V7.41966H33.129V5.76766H35.257V1.93166H37.245V5.76766H41.445V7.41966H37.245ZM58.5095 12.6277C58.5095 13.2997 58.4908 13.813 58.4535 14.1677H45.7695C45.8255 15.325 46.1055 16.3143 46.6095 17.1357C47.1135 17.957 47.7762 18.5823 48.5975 19.0117C49.4188 19.4223 50.3148 19.6277 51.2855 19.6277C52.5548 19.6277 53.6188 19.3197 54.4775 18.7037C55.3548 18.0877 55.9335 17.257 56.2135 16.2117H58.2855C57.9122 17.705 57.1095 18.9277 55.8775 19.8797C54.6642 20.813 53.1335 21.2797 51.2855 21.2797C49.8482 21.2797 48.5602 20.9623 47.4215 20.3277C46.2828 19.6743 45.3868 18.7597 44.7335 17.5837C44.0988 16.389 43.7815 14.9983 43.7815 13.4117C43.7815 11.825 44.0988 10.4343 44.7335 9.23966C45.3682 8.045 46.2548 7.13033 47.3935 6.49566C48.5322 5.861 49.8295 5.54366 51.2855 5.54366C52.7415 5.54366 54.0108 5.861 55.0935 6.49566C56.1948 7.13033 57.0348 7.989 57.6135 9.07166C58.2108 10.1357 58.5095 11.321 58.5095 12.6277ZM56.5215 12.5717C56.5402 11.433 56.3068 10.4623 55.8215 9.65966C55.3548 8.857 54.7108 8.25033 53.8895 7.83966C53.0682 7.429 52.1722 7.22366 51.2015 7.22366C49.7455 7.22366 48.5042 7.69033 47.4775 8.62366C46.4508 9.557 45.8815 10.873 45.7695 12.5717H56.5215ZM69.2635 5.48766C71.0928 5.48766 72.5861 6.057 73.7435 7.19566C74.9008 8.31566 75.4795 9.949 75.4795 12.0957V21.0557H73.5475V12.3197C73.5475 10.6583 73.1275 9.389 72.2875 8.51166C71.4661 7.63433 70.3368 7.19566 68.8995 7.19566C67.4248 7.19566 66.2488 7.66233 65.3715 8.59566C64.4941 9.529 64.0555 10.901 64.0555 12.7117V21.0557H62.0955V5.76766H64.0555V8.37166C64.5408 7.43833 65.2408 6.729 66.1555 6.24366C67.0701 5.73966 68.1061 5.48766 69.2635 5.48766ZM80.7942 2.88366C80.4022 2.88366 80.0662 2.74366 79.7862 2.46366C79.5062 2.18366 79.3662 1.83833 79.3662 1.42766C79.3662 1.017 79.5062 0.680996 79.7862 0.419663C80.0662 0.139663 80.4022 -0.000336885 80.7942 -0.000336885C81.1862 -0.000336885 81.5222 0.139663 81.8022 0.419663C82.0822 0.680996 82.2222 1.017 82.2222 1.42766C82.2222 1.83833 82.0822 2.18366 81.8022 2.46366C81.5222 2.74366 81.1862 2.88366 80.7942 2.88366ZM81.7742 5.76766V21.0557H79.8142V5.76766H81.7742ZM93.3807 5.48766C95.21 5.48766 96.7033 6.057 97.8607 7.19566C99.018 8.31566 99.5967 9.949 99.5967 12.0957V21.0557H97.6647V12.3197C97.6647 10.6583 97.2447 9.389 96.4047 8.51166C95.5833 7.63433 94.454 7.19566 93.0167 7.19566C91.542 7.19566 90.366 7.66233 89.4887 8.59566C88.6113 9.529 88.1727 10.901 88.1727 12.7117V21.0557H86.2127V5.76766H88.1727V8.37166C88.658 7.43833 89.358 6.729 90.2727 6.24366C91.1873 5.73966 92.2233 5.48766 93.3807 5.48766ZM110.343 5.54366C111.781 5.54366 113.031 5.87966 114.095 6.55166C115.159 7.22366 115.925 8.073 116.391 9.09966V5.76766H118.351V21.4477C118.351 22.8477 118.043 24.089 117.427 25.1717C116.83 26.2543 115.99 27.085 114.907 27.6637C113.825 28.261 112.593 28.5597 111.211 28.5597C109.251 28.5597 107.618 28.093 106.311 27.1597C105.023 26.2263 104.221 24.957 103.903 23.3517H105.835C106.171 24.4157 106.806 25.265 107.739 25.8997C108.691 26.5343 109.849 26.8517 111.211 26.8517C112.201 26.8517 113.087 26.637 113.871 26.2077C114.655 25.797 115.271 25.181 115.719 24.3597C116.167 23.5383 116.391 22.5677 116.391 21.4477V17.6677C115.906 18.713 115.131 19.581 114.067 20.2717C113.022 20.9437 111.781 21.2797 110.343 21.2797C108.943 21.2797 107.683 20.953 106.563 20.2997C105.462 19.6463 104.594 18.7223 103.959 17.5277C103.343 16.333 103.035 14.9517 103.035 13.3837C103.035 11.8157 103.343 10.4437 103.959 9.26766C104.594 8.073 105.462 7.15833 106.563 6.52366C107.683 5.87033 108.943 5.54366 110.343 5.54366ZM116.391 13.4117C116.391 12.1797 116.139 11.097 115.635 10.1637C115.131 9.23033 114.441 8.51166 113.563 8.00766C112.705 7.50366 111.753 7.25166 110.707 7.25166C109.625 7.25166 108.654 7.49433 107.795 7.97966C106.937 8.465 106.255 9.17433 105.751 10.1077C105.266 11.0223 105.023 12.1143 105.023 13.3837C105.023 14.6343 105.266 15.7357 105.751 16.6877C106.255 17.621 106.937 18.3397 107.795 18.8437C108.654 19.329 109.625 19.5717 110.707 19.5717C111.753 19.5717 112.705 19.3197 113.563 18.8157C114.441 18.3117 115.131 17.593 115.635 16.6597C116.139 15.7263 116.391 14.6437 116.391 13.4117Z" fill="white"/>
</svg>
